<svg width="24" height="24" viewBox="0 0 24 24" fill="none" xmlns="http://www.w3.org/2000/svg">
<path d="M6.49036 2.85938H16.13C17.9825 2.85938 19.4914 4.3747 19.5001 6.22168V20.3096C19.5001 21.1053 19.2202 21.5459 18.9034 21.7324C18.5869 21.9186 18.0672 21.949 17.3732 21.5625L12.4933 18.8525C12.1447 18.6555 11.7176 18.5723 11.3185 18.5723C10.9675 18.5723 10.5951 18.6364 10.2716 18.7842L10.1368 18.8525L5.25891 21.5615C4.56526 21.9434 4.0447 21.9118 3.72668 21.7246C3.40909 21.5376 3.13005 21.099 3.13 20.3096V6.21973C3.13 4.37503 4.63734 2.85938 6.49036 2.85938ZM11.9044 7.52734C10.8917 7.50353 9.88917 7.51971 9.19739 7.62598C9.02217 7.65289 8.85612 7.68689 8.70911 7.73145C8.56799 7.77425 8.41351 7.83655 8.28333 7.93262C8.22925 7.97253 8.1703 8.02466 8.11926 8.09082C8.05511 8.10718 7.9743 8.13189 7.91321 8.16602C7.74969 8.36837 7.74688 8.76536 7.82141 8.88867C7.85571 8.92624 7.91229 8.97474 7.93176 8.98828C7.94315 8.99558 7.96228 9.00657 7.96985 9.01074C7.98371 9.01823 7.99493 9.02346 7.99915 9.02539C8.00869 9.02976 8.0165 9.03329 8.01868 9.03418C8.03074 9.0391 8.04449 9.04437 8.04602 9.04492C8.0583 9.04938 8.07896 9.05626 8.10754 9.06641C8.15049 9.08165 8.21475 9.1038 8.30286 9.13477C8.33377 9.1458 8.36681 9.15747 8.40149 9.16992L8.44543 9.18555L8.49133 9.19336H8.49231H8.49524C8.49729 9.19368 8.50027 9.19473 8.50403 9.19531C8.51151 9.19648 8.52232 9.19807 8.53625 9.2002C8.56447 9.20449 8.60581 9.21022 8.65833 9.21777C8.76354 9.23291 8.91539 9.25424 9.10168 9.27734C9.47378 9.32348 9.98758 9.37898 10.5538 9.41602C11.1191 9.45298 11.7441 9.47175 12.3361 9.44336C12.9203 9.41533 13.5067 9.33884 13.9786 9.16895C14.1117 9.12118 14.2543 9.19122 14.2999 9.31836C14.3475 9.45127 14.2784 9.59294 14.1515 9.63867H14.1505C13.2341 9.96932 12.271 10.1396 11.3097 10.1396L11.089 11.0879C12.2781 11.6746 13.3092 11.8604 14.1798 11.7656C15.0538 11.6704 15.7335 11.2949 16.214 10.8174C16.6874 10.3467 16.972 9.77247 17.0626 9.2627C17.1075 9.00973 17.1103 8.7428 17.0363 8.50195C16.9602 8.25468 16.7885 8.00013 16.4796 7.88867H16.4786C16.4001 7.86052 16.2936 7.84385 16.2228 7.83301C16.1316 7.81906 16.0148 7.8038 15.879 7.78809C15.6067 7.75654 15.2438 7.72105 14.8263 7.68652C13.9916 7.61749 12.9262 7.55138 11.9044 7.52734ZM15.1066 8.71484C15.3624 8.73815 15.5852 8.76057 15.7638 8.78125C15.8935 8.79627 15.997 8.8099 16.0714 8.82129C16.0754 8.8219 16.0794 8.82168 16.0831 8.82227C16.0931 8.87381 16.1006 8.96186 16.0782 9.08789C16.0254 9.3851 15.8438 9.77544 15.5089 10.1084C15.1806 10.4347 14.7082 10.7021 14.0714 10.7715C13.9961 10.7797 13.9179 10.7837 13.837 10.7861C13.926 10.7611 14.0154 10.7376 14.1036 10.71L14.4894 10.5801C15.1421 10.3456 15.4726 9.62732 15.2404 8.98047C15.2059 8.8845 15.1602 8.79613 15.1066 8.71484Z" fill="#FDFDFD" stroke="#FDFDFD"/>
</svg>
